<svg width="2000" height="225" xmlns="http://www.w3.org/2000/svg" xmlns:xlink="http://www.w3.org/1999/xlink" overflow="hidden"><g><rect x="0" y="0" width="2000" height="225" fill="#FFFFFF"/><path d="M593.213 100.012C585.706 100.012 578.921 101.914 572.858 105.72 566.795 109.525 562.079 114.794 558.711 121.526 555.343 128.258 553.755 136.015 553.947 144.797 553.755 153.188 555.343 160.749 558.711 167.482 562.079 174.214 566.795 179.483 572.858 183.288 578.921 187.094 585.706 188.996 593.213 188.996 600.719 188.996 607.504 187.094 613.567 183.288 619.63 179.483 624.346 174.214 627.715 167.482 631.083 160.749 632.575 153.188 632.19 144.797 632.575 136.015 631.035 128.258 627.57 121.526 624.106 114.794 619.39 109.525 613.423 105.72 607.456 101.914 600.719 100.012 593.213 100.012ZM958.916 99.4262C950.255 99.4262 942.989 101.134 937.118 104.549 931.247 107.964 926.82 112.842 923.837 119.184 923.091 120.77 922.439 122.45 921.879 124.224 921.556 125.52 921.233 126.816 920.91 128.112 944.165 128.112 967.42 128.112 990.675 128.112 990.675 127.819 990.675 127.527 990.675 127.234 990.29 121.77 988.606 116.989 985.623 112.891 982.639 108.793 978.838 105.524 974.218 103.085 969.599 100.646 964.498 99.4262 958.916 99.4262ZM265.588 99.4262C256.926 99.4262 249.66 101.134 243.789 104.549 237.919 107.964 233.492 112.842 230.508 119.184 229.763 120.77 229.11 122.45 228.551 124.224 228.227 125.52 227.904 126.816 227.581 128.112 250.836 128.112 274.091 128.112 297.347 128.112 297.347 127.819 297.347 127.527 297.347 127.234 296.961 121.77 295.277 116.989 292.294 112.891 289.311 108.793 285.509 105.524 280.89 103.085 276.27 100.646 271.169 99.4262 265.588 99.4262ZM772.437 98.8408C764.931 98.8408 758.29 100.743 752.516 104.549 746.741 108.354 742.266 113.72 739.09 120.648 735.915 127.575 734.327 135.625 734.327 144.797 734.327 153.773 735.915 161.676 739.09 168.506 742.266 175.336 746.741 180.703 752.516 184.606 758.29 188.508 764.931 190.46 772.437 190.46 780.329 190.46 787.114 188.508 792.792 184.606 798.47 180.703 802.945 175.336 806.217 168.506 809.489 161.676 811.125 153.773 811.125 144.797 811.125 135.625 809.489 127.575 806.217 120.648 802.945 113.72 798.47 108.354 792.792 104.549 787.114 100.743 780.329 98.8408 772.437 98.8408ZM79.1087 98.8408C71.602 98.8408 64.9615 100.743 59.1871 104.549 53.4128 108.354 48.9376 113.72 45.7618 120.648 42.5859 127.575 40.9979 135.625 40.9979 144.797 40.9979 153.773 42.5859 161.676 45.7618 168.506 48.9376 175.336 53.4128 180.703 59.1871 184.606 64.9615 188.508 71.602 190.46 79.1087 190.46 87.0002 190.46 93.7851 188.508 99.4632 184.606 105.141 180.703 109.616 175.336 112.888 168.506 116.161 161.676 117.797 153.773 117.797 144.797 117.797 135.625 116.161 127.575 112.888 120.648 109.616 113.72 105.141 108.354 99.4632 104.549 93.7851 100.743 87.0002 98.8408 79.1087 98.8408ZM1145 64.008C1148.46 64.008 1151.69 64.2519 1154.67 64.7398 1157.65 65.2276 1160.2 65.9594 1162.32 66.9351 1158.66 82.0586 1155.01 97.1821 1151.35 112.306 1149.23 111.33 1146.49 110.403 1143.12 109.525 1139.75 108.647 1136.33 108.208 1132.87 108.208 1128.44 108.208 1124.26 109.037 1120.31 110.696 1116.37 112.354 1112.9 114.696 1109.92 117.721 1106.93 120.745 1104.62 124.307 1102.99 128.405 1101.35 132.503 1100.53 137.089 1100.53 142.162 1100.53 168.799 1100.53 195.436 1100.53 222.073 1086.77 222.073 1073.01 222.073 1059.25 222.073 1059.25 170.458 1059.25 118.843 1059.25 67.2278 1072.43 67.2278 1085.62 67.2278 1098.8 67.2278 1099.05 75.8062 1099.3 84.3846 1099.55 92.963 1101.27 90.3364 1103 87.7099 1104.72 85.0833 1109.82 78.6436 1115.88 73.5211 1122.91 69.7159 1129.94 65.9106 1137.3 64.008 1145 64.008ZM958.339 64.008C968.733 64.008 978.308 65.9106 987.066 69.7159 995.824 73.5211 1003.43 78.8876 1009.87 85.8151 1016.32 92.7426 1021.28 100.89 1024.74 110.257 1028.21 119.623 1029.84 129.868 1029.65 140.991 1029.56 145.285 1029.46 149.578 1029.36 153.871 993.074 153.871 956.784 153.871 920.495 153.871 920.598 154.468 920.702 155.066 920.806 155.664 921.768 159.688 923.211 163.433 925.136 166.896 928.986 173.824 934.52 179.142 941.738 182.849 948.956 186.557 957.473 188.411 967.289 188.411 974.026 188.411 980.185 187.338 985.767 185.191 991.349 183.044 997.412 179.337 1003.96 174.068 1010.4 183.337 1016.85 192.606 1023.3 201.876 1017.91 206.754 1011.85 210.95 1005.11 214.462 998.374 217.975 991.445 220.609 984.323 222.365 977.202 224.122 970.08 225 962.958 225 946.405 225 931.921 221.585 919.506 214.755 907.091 207.925 897.468 198.558 890.634 186.655 883.802 174.751 880.385 161.189 880.385 145.968 880.385 133.869 882.31 122.794 886.159 112.745 890.009 102.695 895.398 94.0598 902.328 86.8396 909.257 79.6193 917.485 74.009 927.013 70.0086 936.541 66.0082 946.983 64.008 958.339 64.008ZM593.213 64.008C608.804 64.008 622.662 67.4718 634.788 74.3993 646.914 81.3268 656.442 90.8888 663.371 103.085 670.3 115.281 673.861 129.185 674.054 144.797 674.054 160.213 670.541 173.97 663.516 186.069 656.49 198.168 646.914 207.681 634.788 214.609 622.662 221.536 608.804 225 593.213 225 577.622 225 563.764 221.536 551.637 214.609 539.511 207.681 529.936 198.168 522.91 186.069 515.885 173.97 512.372 160.213 512.372 144.797 512.372 129.185 515.885 115.281 522.91 103.085 529.936 90.8888 539.511 81.3268 551.637 74.3993 563.764 67.4718 577.622 64.008 593.213 64.008ZM432.324 64.008C445.99 64.008 458.453 66.5936 469.713 71.7649 480.973 76.9361 489.779 84.01 496.131 92.9865 488.72 102.158 481.31 111.33 473.899 120.502 471.205 116.794 467.836 113.379 463.794 110.257 459.752 107.134 455.373 104.695 450.658 102.939 445.942 101.182 441.082 100.304 436.077 100.304 428.186 100.304 421.16 102.207 415.001 106.012 408.842 109.818 404.03 115.086 400.565 121.819 397.1 128.551 395.368 136.113 395.368 144.504 395.368 152.7 397.197 160.115 400.854 166.75 404.511 173.385 409.419 178.654 415.578 182.557 421.738 186.459 428.571 188.411 436.077 188.411 441.082 188.411 445.846 187.679 450.369 186.215 454.892 184.752 459.079 182.557 462.928 179.629 466.778 176.702 470.435 173.287 473.899 169.385 481.31 178.556 488.72 187.728 496.131 196.899 489.779 205.291 480.78 212.072 469.135 217.243 457.491 222.414 445.22 225 432.324 225 417.696 225 404.607 221.487 393.058 214.462 381.51 207.437 372.415 197.826 365.775 185.63 359.134 173.434 355.814 159.823 355.814 144.797 355.814 129.38 359.134 115.574 365.775 103.378 372.415 91.1815 381.51 81.5707 393.058 74.5456 404.607 67.5206 417.696 64.008 432.324 64.008ZM265.01 64.008C275.404 64.008 284.98 65.9106 293.738 69.7159 302.495 73.5211 310.098 78.8876 316.546 85.8151 322.994 92.7426 327.951 100.89 331.415 110.257 334.88 119.623 336.516 129.868 336.323 140.991 336.227 145.285 336.131 149.578 336.035 153.871 299.745 153.871 263.456 153.871 227.166 153.871 227.27 154.468 227.373 155.066 227.477 155.664 228.439 159.688 229.883 163.433 231.808 166.896 235.657 173.824 241.191 179.142 248.409 182.849 255.627 186.557 264.144 188.411 273.96 188.411 280.697 188.411 286.856 187.338 292.438 185.191 298.02 183.044 304.083 179.337 310.628 174.068 317.076 183.337 323.524 192.606 329.972 201.876 324.582 206.754 318.519 210.95 311.782 214.462 305.046 217.975 298.116 220.609 290.995 222.365 283.873 224.122 276.751 225 269.63 225 253.077 225 238.592 221.585 226.178 214.755 213.763 207.925 204.139 198.558 197.306 186.655 190.473 174.751 187.056 161.189 187.056 145.968 187.056 133.869 188.981 122.794 192.831 112.745 196.68 102.695 202.07 94.0598 208.999 86.8396 215.928 79.6193 224.157 74.009 233.684 70.0086 243.212 66.0082 253.654 64.008 265.01 64.008ZM809.971 5.46549C823.54 5.46549 837.11 5.46549 850.68 5.46549 850.68 77.6679 850.68 149.87 850.68 222.073 837.784 222.073 824.888 222.073 811.992 222.073 811.7 216.065 811.409 210.058 811.117 204.05 810.098 205.265 809.078 206.479 808.058 207.693 806.013 209.718 803.715 211.633 801.165 213.438 796.064 217.048 790.29 219.877 783.842 221.926 777.394 223.975 770.609 225 763.487 225 750.206 225 738.224 221.585 727.542 214.755 716.859 207.925 708.486 198.412 702.423 186.215 696.36 174.019 693.329 160.213 693.329 144.797 693.329 129.185 696.36 115.33 702.423 103.231 708.486 91.1327 716.811 81.5707 727.397 74.5456 737.984 67.5206 750.014 64.008 763.487 64.008 770.609 64.008 777.49 65.1301 784.13 67.3742 790.771 69.6183 796.69 72.6918 801.886 76.5946 804.485 78.5461 806.843 80.6073 808.96 82.7782 809.297 83.1876 809.634 83.5969 809.971 84.0063 809.971 57.826 809.971 31.6458 809.971 5.46549ZM116.642 5.46549C130.212 5.46549 143.781 5.46549 157.351 5.46549 157.351 77.6679 157.351 149.87 157.351 222.073 144.455 222.073 131.559 222.073 118.663 222.073 118.371 216.065 118.08 210.058 117.789 204.05 116.769 205.265 115.749 206.479 114.729 207.693 112.684 209.718 110.386 211.633 107.836 213.438 102.735 217.048 96.961 219.877 90.5129 221.926 84.0649 223.975 77.2801 225 70.1583 225 56.8774 225 44.8956 221.585 34.213 214.755 23.5305 207.925 15.1577 198.412 9.09465 186.215 3.03153 174.019 5.09486e-06 160.213 5.09486e-06 144.797 5.09486e-06 129.185 3.03153 115.33 9.09465 103.231 15.1577 91.1327 23.4823 81.5707 34.0686 74.5456 44.6549 67.5206 56.6849 64.008 70.1583 64.008 77.2801 64.008 84.1612 65.1301 90.8017 67.3742 97.4421 69.6183 103.361 72.6918 108.558 76.5946 111.156 78.5461 113.514 80.6073 115.631 82.7782 115.968 83.1875 116.305 83.5969 116.642 84.0063 116.642 57.826 116.642 31.6457 116.642 5.46549Z" fill-rule="evenodd"/><text fill="#000000" fill-opacity="0" font-family="Arial,Arial_MSFontService,sans-serif" font-size="219.534" x="5.09486e-06" y="197.558">decoder</text><path d="M1921.49 88.8337C1911.61 88.8337 1902.8 91.1807 1895.06 95.8748 1887.31 100.569 1881.19 107.059 1876.7 115.345 1872.21 123.631 1870.06 133.044 1870.24 143.585 1870.06 154.299 1872.22 163.871 1876.74 172.3 1881.26 180.729 1887.39 187.334 1895.13 192.113 1902.86 196.893 1911.65 199.282 1921.49 199.282 1931.3 199.282 1940.07 196.893 1947.81 192.113 1955.54 187.334 1961.62 180.732 1966.05 172.307 1970.48 163.882 1972.6 154.352 1972.41 143.717 1972.6 132.899 1970.5 123.394 1966.09 115.201 1961.69 107.008 1955.62 100.565 1947.88 95.8725 1940.13 91.18 1931.34 88.8337 1921.49 88.8337ZM1667.1 87.6857C1657.66 87.6857 1649.25 90.1166 1641.88 94.9784 1634.5 99.8401 1628.71 106.503 1624.49 114.967 1620.27 123.432 1618.16 133.175 1618.16 144.198 1618.16 154.958 1620.28 164.594 1624.53 173.107 1628.77 181.621 1634.56 188.255 1641.91 193.01 1649.26 197.765 1657.75 200.142 1667.39 200.142 1676.58 200.142 1684.76 197.762 1691.94 193 1699.12 188.239 1704.79 181.639 1708.95 173.199 1713.12 164.759 1715.2 154.997 1715.2 143.914 1715.2 132.946 1713.13 123.269 1708.99 114.881 1704.85 106.492 1699.18 99.863 1691.98 94.9921 1684.77 90.1212 1676.48 87.6857 1667.1 87.6857ZM1783.09 65.7551C1792.2 65.7551 1801.3 65.7551 1810.4 65.7551 1810.4 117.861 1810.4 169.967 1810.4 222.073 1801.3 222.073 1792.2 222.073 1783.09 222.073 1783.09 169.967 1783.09 117.861 1783.09 65.7551ZM1430.88 65.7551C1439.98 65.7551 1449.08 65.7551 1458.18 65.7551 1458.18 95.9228 1458.18 126.09 1458.18 156.258 1458.18 170.784 1461.38 181.73 1467.77 189.095 1474.16 196.46 1483.12 200.142 1494.66 200.142 1500.3 200.142 1505.42 199.128 1510.02 197.101 1514.63 195.073 1518.71 192.346 1522.27 188.921 1525.83 185.495 1528.62 181.681 1530.65 177.48 1532.68 173.278 1533.7 169.077 1533.7 164.875 1533.7 131.835 1533.7 98.7951 1533.7 65.7551 1542.8 65.7551 1551.9 65.7551 1561 65.7551 1561 117.861 1561 169.967 1561 222.073 1552 222.073 1543 222.073 1534.01 222.073 1533.95 215.451 1533.9 208.828 1533.84 202.206 1533.04 203.21 1532.24 204.213 1531.44 205.217 1525.77 211.371 1519.14 216.198 1511.54 219.697 1503.95 223.196 1495.68 224.945 1486.73 224.945 1475.2 224.945 1465.25 222.468 1456.87 217.513 1448.49 212.558 1442.07 205.394 1437.59 196.021 1433.12 186.648 1430.88 175.213 1430.88 161.715 1430.88 129.728 1430.88 97.7416 1430.88 65.7551ZM1921.49 63.171C1936.57 63.171 1950.05 66.6538 1961.92 73.6195 1973.8 80.5851 1983.11 90.1219 1989.87 102.23 1996.62 114.338 2000 128.136 2000 143.626 2000 159.237 1996.61 173.171 1989.83 185.427 1983.05 197.682 1973.73 207.333 1961.89 214.378 1950.05 221.423 1936.58 224.945 1921.49 224.945 1906.37 224.945 1892.89 221.423 1881.05 214.38 1869.21 207.337 1859.86 197.701 1852.99 185.472 1846.13 173.244 1842.69 159.295 1842.69 143.626 1842.69 128.075 1846.11 114.261 1852.95 102.182 1859.78 90.1029 1869.14 80.5813 1881.01 73.6172 1892.89 66.6531 1906.38 63.171 1921.49 63.171ZM1235.62 63.171C1242.64 63.171 1249.66 64.1764 1256.7 66.1873 1263.74 68.1982 1270.2 71.0903 1276.08 74.8635 1281.95 78.6368 1287.27 83.8317 1292.03 90.4482 1286.81 95.9411 1281.59 101.434 1276.37 106.927 1271.34 102.469 1266.69 98.8195 1262.44 95.9777 1258.19 93.1359 1253.84 90.9482 1249.39 89.4145 1244.94 87.8808 1240.63 87.114 1236.46 87.114 1231.81 87.114 1227.64 87.6019 1223.96 88.5776 1220.28 89.5533 1217.24 90.9216 1214.84 92.6824 1212.44 94.4432 1210.69 96.4892 1209.58 98.8202 1208.47 101.151 1207.91 104.088 1207.91 107.631 1208.05 109.604 1208.62 111.726 1209.61 113.998 1210.61 116.269 1211.89 118.05 1213.44 119.34 1216.05 121.422 1219.7 123.423 1224.39 125.343 1229.07 127.262 1235.01 129.01 1242.21 130.586 1251.04 132.821 1258.73 135.396 1265.27 138.311 1271.81 141.226 1277.12 144.755 1281.21 148.899 1285.31 152.461 1288.28 156.73 1290.12 161.708 1291.96 166.685 1292.88 172.24 1292.88 178.372 1292.88 187.586 1290.45 195.741 1285.58 202.836 1280.71 209.931 1274.11 215.39 1265.78 219.212 1257.45 223.034 1247.96 224.945 1237.32 224.945 1224.41 224.945 1212.75 222.602 1202.32 217.915 1191.9 213.229 1183.25 205.8 1176.37 195.628 1182.36 190.431 1188.36 185.234 1194.35 180.036 1200.83 187.504 1207.64 192.866 1214.78 196.122 1221.92 199.378 1230.09 201.007 1239.3 201.007 1243.94 201.007 1247.96 200.448 1251.34 199.33 1254.73 198.213 1257.59 196.684 1259.92 194.743 1262.25 192.802 1263.96 190.5 1265.07 187.837 1266.17 185.173 1266.72 182.305 1266.72 179.232 1266.72 173.905 1264.79 169.737 1260.93 166.727 1258.16 164.724 1254.53 162.839 1250.04 161.072 1245.54 159.305 1240.78 157.624 1235.76 156.029 1224.11 153.471 1214.68 150.441 1207.47 146.939 1200.27 143.438 1195.1 139.671 1191.97 135.64 1187.67 131.292 1184.7 126.942 1183.07 122.589 1181.43 118.237 1180.62 113.284 1180.62 107.732 1180.62 98.9872 1183.03 91.2432 1187.87 84.5002 1192.71 77.7571 1199.26 72.5165 1207.53 68.7783 1215.8 65.0401 1225.16 63.171 1235.62 63.171ZM1344.08 27.2772C1353.18 27.2772 1362.28 27.2772 1371.38 27.2772 1371.38 40.1031 1371.38 52.9291 1371.38 65.7551 1383.84 65.7551 1396.3 65.7551 1408.76 65.7551 1408.64 74.692 1408.52 83.6289 1408.4 92.5658 1396.06 92.5658 1383.72 92.5658 1371.38 92.5658 1371.38 135.735 1371.38 178.904 1371.38 222.073 1362.19 222.073 1352.99 222.073 1343.8 222.073 1343.86 178.904 1343.92 135.735 1343.99 92.5658 1332.7 92.5658 1321.41 92.5658 1310.13 92.5658 1310.02 83.6289 1309.92 74.692 1309.81 65.7551 1321.22 65.7551 1332.62 65.7551 1344.03 65.7551 1344.05 52.9291 1344.06 40.1031 1344.08 27.2772ZM1714.63 4.02022C1723.73 4.02022 1732.83 4.02022 1741.93 4.02022 1741.93 76.7044 1741.93 149.389 1741.93 222.073 1732.83 222.073 1723.73 222.073 1714.63 222.073 1714.63 215.151 1714.63 208.229 1714.63 201.307 1713.91 202.233 1713.18 203.16 1712.46 204.087 1710.19 206.538 1707.7 208.841 1704.98 210.998 1699.54 215.311 1693.37 218.713 1686.49 221.206 1679.61 223.699 1672.39 224.945 1664.84 224.945 1650.43 224.945 1637.69 221.413 1626.6 214.35 1615.51 207.287 1606.73 197.701 1600.27 185.591 1593.81 173.482 1590.57 159.684 1590.57 144.198 1590.57 128.647 1593.79 114.797 1600.22 102.648 1606.65 90.4992 1615.43 80.8824 1626.55 73.7979 1637.67 66.7133 1650.15 63.171 1663.99 63.171 1671.68 63.171 1679.16 64.4692 1686.45 67.0655 1693.73 69.6618 1700.3 73.2208 1706.15 77.7426 1709.07 80.0035 1711.72 82.4075 1714.08 84.9547 1714.26 85.1948 1714.45 85.4349 1714.63 85.675 1714.63 58.4567 1714.63 31.2385 1714.63 4.02022ZM1796.46 9.40799e-07C1802.19 9.40799e-07 1806.7 1.61069 1809.99 4.83204 1813.28 8.0534 1814.93 12.393 1814.93 17.8509 1814.93 23.0069 1813.33 27.3206 1810.13 30.792 1806.94 34.2634 1802.38 35.9991 1796.46 35.9991 1790.71 35.9991 1786.2 34.3366 1782.92 31.0115 1779.64 27.6865 1778 23.2996 1778 17.8509 1778 12.5729 1779.63 8.27828 1782.9 4.96696 1786.16 1.65567 1790.68 9.40799e-07 1796.46 9.40799e-07Z" fill-rule="evenodd"/><text fill="#000000" fill-opacity="0" font-family="Arial,Arial_MSFontService,sans-serif" font-size="224.945" x="1176.37" y="196.827">studio</text></g></svg>